{
    "asset" : {
        "generator" : "Khronos glTF Blender I/O v1.0.5",
        "version" : "2.0"
    },
    "scene" : 0,
    "scenes" : [
        {
            "name" : "Scene",
            "nodes" : [
                0,
                1,
                2,
                3,
                4,
                5,
                6,
                7,
                8,
                9,
                10,
                11
            ]
        }
    ],
    "nodes" : [
        {
            "name" : "Light",
            "rotation" : [
                0.16907575726509094,
                0.7558803558349609,
                -0.27217137813568115,
                0.570947527885437
            ],
            "translation" : [
                4.076245307922363,
                5.903861999511719,
                -1.0054539442062378
            ]
        },
        {
            "name" : "Camera",
            "rotation" : [
                0.483536034822464,
                0.33687159419059753,
                -0.20870360732078552,
                0.7804827094078064
            ],
            "translation" : [
                7.358891487121582,
                4.958309173583984,
                6.925790786743164
            ]
        },
        {
            "name" : "Camera.001",
            "rotation" : [
                0.4835360646247864,
                0.33687159419059753,
                -0.20870356261730194,
                0.7804827094078064
            ],
            "translation" : [
                7.358891487121582,
                4.958309173583984,
                6.925790786743164
            ]
        },
        {
            "mesh" : 0,
            "name" : "Plane",
            "scale" : [
                10.504505157470703,
                10.504505157470703,
                10.504505157470703
            ]
        },
        {
            "mesh" : 1,
            "name" : "Cube",
            "scale" : [
                1.7740888595581055,
                1.7740888595581055,
                2.0842092037200928
            ],
            "translation" : [
                0,
                1.7633178234100342,
                0
            ]
        },
        {
            "mesh" : 2,
            "name" : "Cube.001",
            "scale" : [
                1.7740888595581055,
                1.7740888595581055,
                2.0842092037200928
            ],
            "translation" : [
                0,
                1.7633178234100342,
                0
            ]
        },
        {
            "mesh" : 3,
            "name" : "Cube.004",
            "scale" : [
                1.7740888595581055,
                1.7740888595581055,
                2.0842092037200928
            ],
            "translation" : [
                0,
                1.7633178234100342,
                0
            ]
        },
        {
            "name" : "Light.002",
            "rotation" : [
                0.16907577216625214,
                0.7558803558349609,
                -0.2721714675426483,
                0.5709474682807922
            ],
            "translation" : [
                -0.13173627853393555,
                4.444945335388184,
                -4.793051242828369
            ]
        },
        {
            "name" : "Light.001",
            "rotation" : [
                0.16907577216625214,
                0.7558803558349609,
                -0.2721714675426483,
                0.5709474682807922
            ],
            "translation" : [
                -0.13173627853393555,
                4.444945335388184,
                3.7962498664855957
            ]
        },
        {
            "name" : "Light.003",
            "rotation" : [
                0.16907577216625214,
                0.7558803558349609,
                -0.2721714675426483,
                0.5709474682807922
            ],
            "translation" : [
                -0.13173627853393555,
                7.403879642486572,
                -0.5183472037315369
            ]
        },
        {
            "name" : "Light.004",
            "rotation" : [
                0.16907577216625214,
                0.7558803558349609,
                -0.2721714675426483,
                0.5709474682807922
            ],
            "translation" : [
                -7.618143081665039,
                1.1390156745910645,
                -0.5183472037315369
            ]
        },
        {
            "name" : "Light.005",
            "rotation" : [
                0.16907577216625214,
                0.7558803558349609,
                -0.2721714675426483,
                0.5709474682807922
            ],
            "translation" : [
                7.648961544036865,
                1.1390156745910645,
                -0.5183472037315369
            ]
        }
    ],
    "materials" : [
        {
            "doubleSided" : true,
            "name" : "Material.007",
            "pbrMetallicRoughness" : {
                "metallicFactor" : 0.09545454382896423
            }
        },
        {
            "doubleSided" : true,
            "name" : "Material.001",
            "pbrMetallicRoughness" : {
                "baseColorFactor" : [
                    0.800000011920929,
                    0.800000011920929,
                    0.800000011920929,
                    1
                ],
                "metallicFactor" : 0,
                "roughnessFactor" : 0.4000000059604645
            }
        },
        {
            "doubleSided" : true,
            "name" : "Material.002",
            "pbrMetallicRoughness" : {
                "baseColorFactor" : [
                    1,
                    1,
                    1,
                    1
                ],
                "metallicFactor" : 0.0708661675453186,
                "roughnessFactor" : 0.5
            }
        },
        {
            "doubleSided" : true,
            "name" : "Material.005",
            "pbrMetallicRoughness" : {
                "baseColorFactor" : [
                    1,
                    0.7936546802520752,
                    0,
                    1
                ],
                "metallicFactor" : 0,
                "roughnessFactor" : 0.5
            }
        },
        {
            "doubleSided" : true,
            "name" : "Material.003",
            "pbrMetallicRoughness" : {
                "baseColorFactor" : [
                    1,
                    0.7936546802520752,
                    0,
                    1
                ],
                "metallicFactor" : 0,
                "roughnessFactor" : 0.5
            }
        },
        {
            "doubleSided" : true,
            "name" : "Material.006",
            "pbrMetallicRoughness" : {
                "baseColorFactor" : [
                    1,
                    0.7936546802520752,
                    0,
                    1
                ],
                "metallicFactor" : 0.04724409431219101,
                "roughnessFactor" : 0
            }
        }
    ],
    "meshes" : [
        {
            "name" : "Plane",
            "primitives" : [
                {
                    "attributes" : {
                        "POSITION" : 0,
                        "NORMAL" : 1,
                        "TEXCOORD_0" : 2
                    },
                    "indices" : 3,
                    "material" : 0
                }
            ]
        },
        {
            "name" : "Cube.001",
            "primitives" : [
                {
                    "attributes" : {
                        "POSITION" : 4,
                        "NORMAL" : 5,
                        "TEXCOORD_0" : 6
                    },
                    "indices" : 7,
                    "material" : 1
                }
            ]
        },
        {
            "name" : "Cube.002",
            "primitives" : [
                {
                    "attributes" : {
                        "POSITION" : 8,
                        "NORMAL" : 9,
                        "TEXCOORD_0" : 10
                    },
                    "indices" : 11,
                    "material" : 2
                }
            ]
        },
        {
            "name" : "Cube.005",
            "primitives" : [
                {
                    "attributes" : {
                        "POSITION" : 12,
                        "NORMAL" : 13,
                        "TEXCOORD_0" : 14
                    },
                    "indices" : 15,
                    "material" : 3
                },
                {
                    "attributes" : {
                        "POSITION" : 16,
                        "NORMAL" : 17,
                        "TEXCOORD_0" : 18
                    },
                    "indices" : 19,
                    "material" : 4
                },
                {
                    "attributes" : {
                        "POSITION" : 20,
                        "NORMAL" : 21,
                        "TEXCOORD_0" : 22
                    },
                    "indices" : 23,
                    "material" : 5
                }
            ]
        }
    ],
    "accessors" : [
        {
            "bufferView" : 0,
            "componentType" : 5126,
            "count" : 4,
            "max" : [
                1,
                0,
                1
            ],
            "min" : [
                -1,
                0,
                -1
            ],
            "type" : "VEC3"
        },
        {
            "bufferView" : 1,
            "componentType" : 5126,
            "count" : 4,
            "type" : "VEC3"
        },
        {
            "bufferView" : 2,
            "componentType" : 5126,
            "count" : 4,
            "type" : "VEC2"
        },
        {
            "bufferView" : 3,
            "componentType" : 5123,
            "count" : 6,
            "type" : "SCALAR"
        },
        {
            "bufferView" : 4,
            "componentType" : 5126,
            "count" : 558,
            "max" : [
                1,
                1,
                1
            ],
            "min" : [
                -1,
                -1,
                -1
            ],
            "type" : "VEC3"
        },
        {
            "bufferView" : 5,
            "componentType" : 5126,
            "count" : 558,
            "type" : "VEC3"
        },
        {
            "bufferView" : 6,
            "componentType" : 5126,
            "count" : 558,
            "type" : "VEC2"
        },
        {
            "bufferView" : 7,
            "componentType" : 5123,
            "count" : 2100,
            "type" : "SCALAR"
        },
        {
            "bufferView" : 8,
            "componentType" : 5126,
            "count" : 49,
            "max" : [
                0.75,
                1,
                0.75
            ],
            "min" : [
                -0.75,
                1,
                -0.75
            ],
            "type" : "VEC3"
        },
        {
            "bufferView" : 9,
            "componentType" : 5126,
            "count" : 49,
            "type" : "VEC3"
        },
        {
            "bufferView" : 10,
            "componentType" : 5126,
            "count" : 49,
            "type" : "VEC2"
        },
        {
            "bufferView" : 11,
            "componentType" : 5123,
            "count" : 216,
            "type" : "SCALAR"
        },
        {
            "bufferView" : 12,
            "componentType" : 5126,
            "count" : 12,
            "max" : [
                0.75,
                -0.25,
                -1
            ],
            "min" : [
                0.25,
                -1,
                -1
            ],
            "type" : "VEC3"
        },
        {
            "bufferView" : 13,
            "componentType" : 5126,
            "count" : 12,
            "type" : "VEC3"
        },
        {
            "bufferView" : 14,
            "componentType" : 5126,
            "count" : 12,
            "type" : "VEC2"
        },
        {
            "bufferView" : 15,
            "componentType" : 5123,
            "count" : 36,
            "type" : "SCALAR"
        },
        {
            "bufferView" : 16,
            "componentType" : 5126,
            "count" : 72,
            "max" : [
                0.9999999403953552,
                0.7499999403953552,
                0.9999999403953552
            ],
            "min" : [
                -0.9999999403953552,
                0.4999999701976776,
                -0.9999999403953552
            ],
            "type" : "VEC3"
        },
        {
            "bufferView" : 17,
            "componentType" : 5126,
            "count" : 72,
            "type" : "VEC3"
        },
        {
            "bufferView" : 18,
            "componentType" : 5126,
            "count" : 72,
            "type" : "VEC2"
        },
        {
            "bufferView" : 19,
            "componentType" : 5123,
            "count" : 192,
            "type" : "SCALAR"
        },
        {
            "bufferView" : 20,
            "componentType" : 5126,
            "count" : 192,
            "max" : [
                0.9999999403953552,
                0.2499999850988388,
                0.9999999403953552
            ],
            "min" : [
                -0.9999999403953552,
                0,
                -0.9999999403953552
            ],
            "type" : "VEC3"
        },
        {
            "bufferView" : 21,
            "componentType" : 5126,
            "count" : 192,
            "type" : "VEC3"
        },
        {
            "bufferView" : 22,
            "componentType" : 5126,
            "count" : 192,
            "type" : "VEC2"
        },
        {
            "bufferView" : 23,
            "componentType" : 5123,
            "count" : 528,
            "type" : "SCALAR"
        }
    ],
    "bufferViews" : [
        {
            "buffer" : 0,
            "byteLength" : 48,
            "byteOffset" : 0
        },
        {
            "buffer" : 0,
            "byteLength" : 48,
            "byteOffset" : 48
        },
        {
            "buffer" : 0,
            "byteLength" : 32,
            "byteOffset" : 96
        },
        {
            "buffer" : 0,
            "byteLength" : 12,
            "byteOffset" : 128
        },
        {
            "buffer" : 0,
            "byteLength" : 6696,
            "byteOffset" : 140
        },
        {
            "buffer" : 0,
            "byteLength" : 6696,
            "byteOffset" : 6836
        },
        {
            "buffer" : 0,
            "byteLength" : 4464,
            "byteOffset" : 13532
        },
        {
            "buffer" : 0,
            "byteLength" : 4200,
            "byteOffset" : 17996
        },
        {
            "buffer" : 0,
            "byteLength" : 588,
            "byteOffset" : 22196
        },
        {
            "buffer" : 0,
            "byteLength" : 588,
            "byteOffset" : 22784
        },
        {
            "buffer" : 0,
            "byteLength" : 392,
            "byteOffset" : 23372
        },
        {
            "buffer" : 0,
            "byteLength" : 432,
            "byteOffset" : 23764
        },
        {
            "buffer" : 0,
            "byteLength" : 144,
            "byteOffset" : 24196
        },
        {
            "buffer" : 0,
            "byteLength" : 144,
            "byteOffset" : 24340
        },
        {
            "buffer" : 0,
            "byteLength" : 96,
            "byteOffset" : 24484
        },
        {
            "buffer" : 0,
            "byteLength" : 72,
            "byteOffset" : 24580
        },
        {
            "buffer" : 0,
            "byteLength" : 864,
            "byteOffset" : 24652
        },
        {
            "buffer" : 0,
            "byteLength" : 864,
            "byteOffset" : 25516
        },
        {
            "buffer" : 0,
            "byteLength" : 576,
            "byteOffset" : 26380
        },
        {
            "buffer" : 0,
            "byteLength" : 384,
            "byteOffset" : 26956
        },
        {
            "buffer" : 0,
            "byteLength" : 2304,
            "byteOffset" : 27340
        },
        {
            "buffer" : 0,
            "byteLength" : 2304,
            "byteOffset" : 29644
        },
        {
            "buffer" : 0,
            "byteLength" : 1536,
            "byteOffset" : 31948
        },
        {
            "buffer" : 0,
            "byteLength" : 1056,
            "byteOffset" : 33484
        }
    ],
    "buffers" : [
        {
            "byteLength" : 34540,
            "uri" : "mecca1blender.bin"
        }
    ]
}
